<svg xmlns="http://www.w3.org/2000/svg" version="1.1" xmlns:xlink="http://www.w3.org/1999/xlink" xmlns:svgjs="http://svgjs.dev/svgjs" width="345" height="281" viewBox="0 0 120 120" style="background: rgb(226, 235, 235);"><svg viewBox="0 0 91.98188018798828 104.9964370727539" width="70" height="70" style="fill: rgb(77, 62, 252);" x="25" y="25"><svg xmlns="http://www.w3.org/2000/svg" viewBox="0 0 257.81 280.24"><path d="m128.91,67.26c-40.17,0-72.86,32.69-72.86,72.86,0,9.27,7.54,16.81,16.81,16.81h112.09c9.27,0,16.81-7.54,16.81-16.81,0-40.18-32.69-72.86-72.86-72.86Zm56.05,78.47h-112.09c-3.09,0-5.6-2.52-5.6-5.6,0-33.99,27.66-61.65,61.65-61.65s61.65,27.66,61.65,61.65c0,3.09-2.51,5.6-5.6,5.6Z"></path><path d="m100.89,106.49c-9.27,0-16.81,7.54-16.81,16.81s7.54,16.81,16.81,16.81,16.81-7.54,16.81-16.81-7.54-16.81-16.81-16.81Zm0,22.42c-3.1,0-5.61-2.52-5.61-5.61s2.51-5.6,5.61-5.6,5.6,2.52,5.6,5.6-2.51,5.61-5.6,5.61Z"></path><path d="m156.93,106.49c-9.27,0-16.81,7.54-16.81,16.81s7.54,16.81,16.81,16.81,16.81-7.54,16.81-16.81-7.54-16.81-16.81-16.81Zm0,22.42c-3.1,0-5.61-2.52-5.61-5.61s2.51-5.6,5.61-5.6,5.6,2.52,5.6,5.6-2.51,5.61-5.6,5.61Z"></path><path d="m246.61,230.82v-73.89c0-10.51-7.29-19.28-17.06-21.7-2.48-51.48-43.65-92.87-95.03-95.71v-6.92c6.51-2.32,11.21-8.49,11.21-15.78,0-9.27-7.54-16.81-16.81-16.81s-16.81,7.54-16.81,16.81c0,7.3,4.7,13.46,11.21,15.78v6.92c-51.39,2.85-92.55,44.23-95.03,95.72-9.77,2.42-17.06,11.19-17.06,21.7v73.89c-6.51,2.32-11.21,8.49-11.21,15.78,0,9.27,7.54,16.81,16.81,16.81s16.81-7.54,16.81-16.81c0-7.3-4.7-13.46-11.21-15.78v-54.59c1.74,1.01,3.61,1.8,5.6,2.32v23.22c0,27.81,22.63,50.44,50.44,50.44h11.71c2.68,15.88,16.49,28.02,33.12,28.02h11.21c16.63,0,30.44-12.15,33.12-28.02h11.71c27.82,0,50.44-22.63,50.44-50.44v-23.22c2-.52,3.87-1.3,5.6-2.32v54.59c-6.51,2.32-11.21,8.49-11.21,15.78,0,9.27,7.54,16.81,16.81,16.81s16.81-7.54,16.81-16.81c0-7.3-4.7-13.47-11.21-15.79h0ZM128.91,11.21c3.1,0,5.6,2.52,5.6,5.6s-2.51,5.6-5.6,5.6-5.6-2.52-5.6-5.6,2.51-5.6,5.6-5.6ZM16.82,252.21c-3.09,0-5.6-2.52-5.6-5.61s2.51-5.6,5.6-5.6,5.6,2.52,5.6,5.6-2.51,5.61-5.6,5.61Zm5.6-95.28c0-4.14,2.25-7.76,5.6-9.7v19.41c-3.35-1.94-5.6-5.57-5.6-9.71Zm112.09,112.09h-11.21c-10.43,0-19.22-7.16-21.71-16.81h54.62c-2.49,9.66-11.28,16.81-21.71,16.81h0Zm84.07-67.26c0,21.63-17.6,39.23-39.23,39.23h-100.88c-21.63,0-39.23-17.6-39.23-39.23v-61.65c0-49.44,40.23-89.68,89.67-89.68s89.68,40.23,89.68,89.68v61.65Zm11.21-35.13v-19.41c3.35,1.94,5.6,5.56,5.6,9.7s-2.25,7.77-5.6,9.71Zm11.21,85.58c-3.09,0-5.61-2.52-5.61-5.61s2.51-5.6,5.61-5.6,5.61,2.52,5.61,5.6-2.51,5.61-5.61,5.61Z"></path><path d="m169.77,169.77c-1.01,1.07-1.62,2.52-1.62,3.98,0,.73.11,1.46.45,2.13.28.73.67,1.29,1.18,1.85.56.5,1.12.9,1.85,1.18.67.28,1.4.45,2.13.45,1.46,0,2.91-.62,3.98-1.63.5-.56.9-1.12,1.18-1.85.28-.67.45-1.4.45-2.13,0-1.46-.62-2.92-1.63-3.98-2.13-2.07-5.89-2.07-7.96,0Z"></path><path d="m200.15,169.77c-1.57-1.57-4.09-2.02-6.11-1.18-.73.28-1.29.67-1.85,1.18-.5.56-.9,1.12-1.18,1.85-.28.67-.45,1.4-.45,2.13s.17,1.46.45,2.13c.28.73.67,1.29,1.18,1.85.56.5,1.12.9,1.85,1.18.67.34,1.4.45,2.13.45,1.46,0,2.91-.62,3.98-1.63.5-.56.9-1.12,1.18-1.85.28-.67.45-1.4.45-2.13s-.17-1.46-.45-2.13c-.28-.67-.67-1.29-1.18-1.85Z"></path></svg></svg>